<mxfile host="app.diagrams.net" modified="2022-06-25T10:32:46.476Z" agent="5.0 (Macintosh; Intel Mac OS X 10_15_7) AppleWebKit/605.1.15 (KHTML, like Gecko) Version/15.3 Safari/605.1.15" etag="4Lh21y8Bp2JcZRVAXydV" version="19.0.3" type="github">
  <diagram id="R2lEEEUBdFMjLlhIrx00" name="Page-1">
    <mxGraphModel dx="1198" dy="811" grid="1" gridSize="10" guides="1" tooltips="1" connect="1" arrows="1" fold="1" page="1" pageScale="1" pageWidth="1600" pageHeight="1200" math="0" shadow="0" extFonts="Permanent Marker^https://fonts.googleapis.com/css?family=Permanent+Marker">
      <root>
        <mxCell id="0" />
        <mxCell id="1" parent="0" />
        <mxCell id="wvjX0wvyx044dXux5qu8-21" style="edgeStyle=orthogonalEdgeStyle;rounded=0;orthogonalLoop=1;jettySize=auto;html=1;entryX=0;entryY=0.5;entryDx=0;entryDy=0;" edge="1" parent="1" source="wvjX0wvyx044dXux5qu8-1" target="wvjX0wvyx044dXux5qu8-19">
          <mxGeometry relative="1" as="geometry" />
        </mxCell>
        <mxCell id="wvjX0wvyx044dXux5qu8-38" style="edgeStyle=orthogonalEdgeStyle;rounded=0;orthogonalLoop=1;jettySize=auto;html=1;exitX=0.5;exitY=1;exitDx=0;exitDy=0;entryX=1;entryY=0.5;entryDx=0;entryDy=0;" edge="1" parent="1" source="wvjX0wvyx044dXux5qu8-3" target="wvjX0wvyx044dXux5qu8-42">
          <mxGeometry relative="1" as="geometry">
            <mxPoint x="565" y="560" as="targetPoint" />
          </mxGeometry>
        </mxCell>
        <mxCell id="wvjX0wvyx044dXux5qu8-3" value="" style="rounded=0;whiteSpace=wrap;html=1;" vertex="1" parent="1">
          <mxGeometry x="300" y="210" width="540" height="240" as="geometry" />
        </mxCell>
        <mxCell id="wvjX0wvyx044dXux5qu8-33" style="edgeStyle=orthogonalEdgeStyle;rounded=0;orthogonalLoop=1;jettySize=auto;html=1;exitX=1;exitY=1;exitDx=0;exitDy=0;entryX=0.5;entryY=0;entryDx=0;entryDy=0;" edge="1" parent="1" source="wvjX0wvyx044dXux5qu8-1" target="wvjX0wvyx044dXux5qu8-31">
          <mxGeometry relative="1" as="geometry" />
        </mxCell>
        <mxCell id="wvjX0wvyx044dXux5qu8-44" style="edgeStyle=orthogonalEdgeStyle;rounded=0;orthogonalLoop=1;jettySize=auto;html=1;exitX=0.25;exitY=1;exitDx=0;exitDy=0;" edge="1" parent="1" source="wvjX0wvyx044dXux5qu8-1" target="wvjX0wvyx044dXux5qu8-42">
          <mxGeometry relative="1" as="geometry">
            <mxPoint x="386.25" y="556.0899999999999" as="targetPoint" />
            <Array as="points">
              <mxPoint x="133" y="520" />
              <mxPoint x="386" y="520" />
              <mxPoint x="386" y="580" />
              <mxPoint x="390" y="580" />
            </Array>
          </mxGeometry>
        </mxCell>
        <mxCell id="wvjX0wvyx044dXux5qu8-45" value="reminder list" style="edgeLabel;html=1;align=center;verticalAlign=middle;resizable=0;points=[];" vertex="1" connectable="0" parent="wvjX0wvyx044dXux5qu8-44">
          <mxGeometry x="0.5764" relative="1" as="geometry">
            <mxPoint y="10" as="offset" />
          </mxGeometry>
        </mxCell>
        <mxCell id="wvjX0wvyx044dXux5qu8-1" value="REST API" style="rounded=0;whiteSpace=wrap;html=1;" vertex="1" parent="1">
          <mxGeometry x="90" y="60" width="170" height="90" as="geometry" />
        </mxCell>
        <mxCell id="wvjX0wvyx044dXux5qu8-18" style="edgeStyle=orthogonalEdgeStyle;rounded=0;orthogonalLoop=1;jettySize=auto;html=1;entryX=0.5;entryY=1;entryDx=0;entryDy=0;" edge="1" parent="1" source="wvjX0wvyx044dXux5qu8-4" target="wvjX0wvyx044dXux5qu8-1">
          <mxGeometry relative="1" as="geometry">
            <Array as="points">
              <mxPoint x="400" y="260" />
              <mxPoint x="175" y="260" />
            </Array>
          </mxGeometry>
        </mxCell>
        <mxCell id="wvjX0wvyx044dXux5qu8-4" value="Enter &amp;nbsp;Mobile" style="rounded=0;whiteSpace=wrap;html=1;" vertex="1" parent="1">
          <mxGeometry x="340" y="320" width="120" height="50" as="geometry" />
        </mxCell>
        <mxCell id="wvjX0wvyx044dXux5qu8-9" style="edgeStyle=orthogonalEdgeStyle;rounded=0;orthogonalLoop=1;jettySize=auto;html=1;entryX=-0.002;entryY=0.563;entryDx=0;entryDy=0;entryPerimeter=0;" edge="1" parent="1" source="wvjX0wvyx044dXux5qu8-5" target="wvjX0wvyx044dXux5qu8-3">
          <mxGeometry relative="1" as="geometry" />
        </mxCell>
        <mxCell id="wvjX0wvyx044dXux5qu8-10" value="No" style="edgeLabel;html=1;align=center;verticalAlign=middle;resizable=0;points=[];" vertex="1" connectable="0" parent="wvjX0wvyx044dXux5qu8-9">
          <mxGeometry x="-0.1493" y="1" relative="1" as="geometry">
            <mxPoint as="offset" />
          </mxGeometry>
        </mxCell>
        <mxCell id="wvjX0wvyx044dXux5qu8-40" style="edgeStyle=orthogonalEdgeStyle;rounded=0;orthogonalLoop=1;jettySize=auto;html=1;entryX=0;entryY=0.5;entryDx=0;entryDy=0;" edge="1" parent="1" source="wvjX0wvyx044dXux5qu8-5" target="wvjX0wvyx044dXux5qu8-42">
          <mxGeometry relative="1" as="geometry">
            <mxPoint x="280" y="620" as="targetPoint" />
            <Array as="points">
              <mxPoint x="195" y="620" />
            </Array>
          </mxGeometry>
        </mxCell>
        <mxCell id="wvjX0wvyx044dXux5qu8-41" value="Yes" style="edgeLabel;html=1;align=center;verticalAlign=middle;resizable=0;points=[];" vertex="1" connectable="0" parent="wvjX0wvyx044dXux5qu8-40">
          <mxGeometry x="-0.392" y="2" relative="1" as="geometry">
            <mxPoint as="offset" />
          </mxGeometry>
        </mxCell>
        <mxCell id="wvjX0wvyx044dXux5qu8-5" value="logged In?" style="rhombus;whiteSpace=wrap;html=1;" vertex="1" parent="1">
          <mxGeometry x="150" y="300" width="90" height="90" as="geometry" />
        </mxCell>
        <mxCell id="wvjX0wvyx044dXux5qu8-6" value="" style="endArrow=classic;html=1;rounded=0;entryX=0;entryY=0.5;entryDx=0;entryDy=0;" edge="1" parent="1" target="wvjX0wvyx044dXux5qu8-5">
          <mxGeometry width="50" height="50" relative="1" as="geometry">
            <mxPoint x="60" y="345" as="sourcePoint" />
            <mxPoint x="470" y="340" as="targetPoint" />
          </mxGeometry>
        </mxCell>
        <mxCell id="wvjX0wvyx044dXux5qu8-7" value="Launch" style="edgeLabel;html=1;align=center;verticalAlign=middle;resizable=0;points=[];" vertex="1" connectable="0" parent="wvjX0wvyx044dXux5qu8-6">
          <mxGeometry x="-0.2222" y="-1" relative="1" as="geometry">
            <mxPoint as="offset" />
          </mxGeometry>
        </mxCell>
        <mxCell id="wvjX0wvyx044dXux5qu8-23" style="edgeStyle=orthogonalEdgeStyle;rounded=0;orthogonalLoop=1;jettySize=auto;html=1;exitX=1;exitY=0.5;exitDx=0;exitDy=0;entryX=0;entryY=0.5;entryDx=0;entryDy=0;entryPerimeter=0;" edge="1" parent="1" source="wvjX0wvyx044dXux5qu8-19" target="wvjX0wvyx044dXux5qu8-22">
          <mxGeometry relative="1" as="geometry" />
        </mxCell>
        <mxCell id="wvjX0wvyx044dXux5qu8-19" value="sms api" style="shape=process;whiteSpace=wrap;html=1;backgroundOutline=1;" vertex="1" parent="1">
          <mxGeometry x="330" y="75" width="120" height="60" as="geometry" />
        </mxCell>
        <mxCell id="wvjX0wvyx044dXux5qu8-22" value="" style="sketch=0;aspect=fixed;pointerEvents=1;shadow=0;dashed=0;html=1;strokeColor=none;labelPosition=center;verticalLabelPosition=bottom;verticalAlign=top;align=center;fillColor=#00188D;shape=mxgraph.mscae.enterprise.android_phone" vertex="1" parent="1">
          <mxGeometry x="530" y="80" width="30" height="50" as="geometry" />
        </mxCell>
        <mxCell id="wvjX0wvyx044dXux5qu8-26" style="edgeStyle=orthogonalEdgeStyle;rounded=0;orthogonalLoop=1;jettySize=auto;html=1;entryX=0.75;entryY=1;entryDx=0;entryDy=0;" edge="1" parent="1" source="wvjX0wvyx044dXux5qu8-25" target="wvjX0wvyx044dXux5qu8-1">
          <mxGeometry relative="1" as="geometry">
            <Array as="points">
              <mxPoint x="575" y="230" />
              <mxPoint x="218" y="230" />
            </Array>
          </mxGeometry>
        </mxCell>
        <mxCell id="wvjX0wvyx044dXux5qu8-25" value="enter OTP" style="rounded=0;whiteSpace=wrap;html=1;" vertex="1" parent="1">
          <mxGeometry x="510" y="320" width="130" height="50" as="geometry" />
        </mxCell>
        <mxCell id="wvjX0wvyx044dXux5qu8-31" value="" style="rounded=1;whiteSpace=wrap;html=1;" vertex="1" parent="1">
          <mxGeometry x="610" y="230" width="130" height="70" as="geometry" />
        </mxCell>
        <mxCell id="wvjX0wvyx044dXux5qu8-28" value="Auth token" style="rounded=0;whiteSpace=wrap;html=1;" vertex="1" parent="1">
          <mxGeometry x="630" y="240" width="80" height="40" as="geometry" />
        </mxCell>
        <mxCell id="wvjX0wvyx044dXux5qu8-32" value="Datastore" style="text;html=1;align=center;verticalAlign=middle;resizable=0;points=[];autosize=1;strokeColor=none;fillColor=none;" vertex="1" parent="1">
          <mxGeometry x="610" y="280" width="70" height="20" as="geometry" />
        </mxCell>
        <mxCell id="wvjX0wvyx044dXux5qu8-34" value="Authentication" style="text;html=1;align=center;verticalAlign=middle;resizable=0;points=[];autosize=1;strokeColor=none;fillColor=none;" vertex="1" parent="1">
          <mxGeometry x="310" y="420" width="90" height="20" as="geometry" />
        </mxCell>
        <mxCell id="wvjX0wvyx044dXux5qu8-42" value="Home Page" style="rounded=0;whiteSpace=wrap;html=1;" vertex="1" parent="1">
          <mxGeometry x="330" y="590" width="120" height="60" as="geometry" />
        </mxCell>
        <mxCell id="wvjX0wvyx044dXux5qu8-49" style="edgeStyle=orthogonalEdgeStyle;rounded=0;orthogonalLoop=1;jettySize=auto;html=1;entryX=1;entryY=0.75;entryDx=0;entryDy=0;" edge="1" parent="1" source="wvjX0wvyx044dXux5qu8-48" target="wvjX0wvyx044dXux5qu8-1">
          <mxGeometry relative="1" as="geometry">
            <Array as="points">
              <mxPoint x="880" y="620" />
              <mxPoint x="880" y="160" />
              <mxPoint x="260" y="160" />
            </Array>
          </mxGeometry>
        </mxCell>
        <mxCell id="wvjX0wvyx044dXux5qu8-48" value="Add new&amp;nbsp;" style="rounded=0;whiteSpace=wrap;html=1;" vertex="1" parent="1">
          <mxGeometry x="630" y="590" width="120" height="60" as="geometry" />
        </mxCell>
        <mxCell id="wvjX0wvyx044dXux5qu8-51" style="edgeStyle=orthogonalEdgeStyle;rounded=0;orthogonalLoop=1;jettySize=auto;html=1;exitX=0;exitY=0.5;exitDx=0;exitDy=0;entryX=0.116;entryY=1.002;entryDx=0;entryDy=0;entryPerimeter=0;" edge="1" parent="1" source="wvjX0wvyx044dXux5qu8-50" target="wvjX0wvyx044dXux5qu8-1">
          <mxGeometry relative="1" as="geometry">
            <mxPoint x="110" y="160" as="targetPoint" />
          </mxGeometry>
        </mxCell>
        <mxCell id="wvjX0wvyx044dXux5qu8-50" value="update/delete reminder" style="rounded=0;whiteSpace=wrap;html=1;" vertex="1" parent="1">
          <mxGeometry x="460" y="680" width="120" height="60" as="geometry" />
        </mxCell>
      </root>
    </mxGraphModel>
  </diagram>
</mxfile>
